<?xml version="1.0" standalone="no"?>
<!DOCTYPE svg PUBLIC "-//W3C//DTD SVG 20010904//EN"
 "http://www.w3.org/TR/2001/REC-SVG-20010904/DTD/svg10.dtd">
<svg version="1.0" xmlns="http://www.w3.org/2000/svg"
 width="158.000000pt" height="138.000000pt" viewBox="0 0 158.000000 138.000000"
 preserveAspectRatio="xMidYMid meet">

<g transform="translate(0.000000,138.000000) scale(0.100000,-0.100000)"
fill="#000000" stroke="none">
<path d="M530 828 c-46 -32 -71 -68 -80 -119 -26 -135 67 -240 196 -224 50 6
113 38 121 60 2 6 -2 18 -9 28 -12 15 -16 15 -57 -3 -24 -11 -60 -20 -80 -20
-64 1 -91 38 -91 125 0 49 4 60 29 86 21 20 39 29 63 29 41 0 51 -7 72 -47 18
-35 50 -44 60 -17 8 22 7 97 -2 109 -4 6 -48 12 -98 13 -80 2 -94 0 -124 -20z"/>
<path d="M856 824 c-10 -25 13 -44 51 -44 l34 0 -3 -112 -3 -113 -37 -3 c-39
-3 -56 -25 -37 -49 9 -10 37 -13 123 -11 l111 3 3 28 c3 26 1 27 -37 27 l-41
0 0 114 0 115 38 3 c32 3 37 7 40 31 l3 27 -119 0 c-101 0 -121 -2 -126 -16z"/>
</g>
</svg>
